<svg width="40" height="40" viewBox="0 0 40 40"  xmlns="http://www.w3.org/2000/svg" style="fill: #333">
<path d="M3.85982 9.80728L0.0924982 3.57337L2.60405 1.0798L8.88291 4.82015V7.31371L15.3412 13.7257C15.3412 13.9038 15.3412 14.082 15.3412 14.2601L13.009 16.3974L6.37137 9.80728H3.85982ZM30.7692 24.9468C30.2311 24.9468 29.8723 24.9468 29.3341 24.9468C28.0783 24.9468 27.0019 24.7687 25.9256 24.5906L22.1582 28.8652L30.5899 38.3052C32.5632 40.4425 35.9717 40.6206 37.9451 38.4833C40.0979 36.3459 39.9185 33.1399 37.7657 31.1807L30.7692 24.9468ZM36.8687 18.1785C39.7391 15.3287 40.636 11.0541 39.5597 7.31371C39.3803 6.60127 38.4833 6.42316 38.1245 6.95749L31.8456 13.1914L26.8225 8.20427L33.1014 1.97036C33.6396 1.43603 33.4602 0.723579 32.7426 0.545467C28.9753 -0.701315 24.6698 0.189244 21.7994 3.21714C18.5703 6.42315 17.8527 11.4103 19.6467 15.3287L1.70706 31.1807C-0.44569 33.1399 -0.625087 36.524 1.52767 38.4833C3.68042 40.6206 6.90955 40.4425 8.88291 38.3052L24.8492 20.494C28.7959 22.2751 33.6396 21.5627 36.8687 18.1785Z" fill="#212121"/>
</svg>
